# xmcd
# 
# Track frame offsets:
#     150
#     26482
#     56513
#     76029
#     98578
#     120430
#     144086
#     162499
#     189533
#     211211
#     251862
#     311713
# 
# Disc length: 4271
# 
# Revision: 2
# Processed by: cddbd v1.5.2PL0 Copyright (c) Steve Scherf et al.
# Submitted via: fre:ac v1.0.17
# 
DISCID=9610ad0c
DTITLE=Jeb Bishop - 98 Duets
DYEAR=0
DGENRE=Jazz
TTITLE0=A. (With Lonberg-holm)
TTITLE1=B. (With Gustafsson)
TTITLE2=C. (With Abrams)
TTITLE3=D. (With Abrams)
TTITLE4=E. (With Gustafsson)
TTITLE5=F. (With Lonberg-Holm)
TTITLE6=G. (With Vandermark)
TTITLE7=H. (With Smith)
TTITLE8=I. (With Vandermark)
TTITLE9=J. (With Smith)
TTITLE10=K. (With Drake)
TTITLE11=L. (With Lonberg-Holm)
EXTD=
EXTT0=
EXTT1=
EXTT2=
EXTT3=
EXTT4=
EXTT5=
EXTT6=
EXTT7=
EXTT8=
EXTT9=
EXTT10=
EXTT11=
PLAYORDER=
